<svg xmlns="http://www.w3.org/2000/svg" width="262" height="40" fill="none"><path fill="#fff" fill-rule="evenodd" d="M109.305 15.67H91.339a1.858 1.858 0 0 1-1.857-1.86v-1.395c0-1.028.831-1.86 1.858-1.86h15.208c.741 0 1.178-.823.774-1.447C103.824 3.723 97.805.128 90.94.003c-10.922-.197-20.078 8.575-20.336 19.51-.265 11.266 8.776 20.48 19.967 20.48 7.02 0 13.191-3.627 16.753-9.11a.93.93 0 0 0-.776-1.444H91.339a1.858 1.858 0 0 1-1.857-1.86v-1.395c0-1.028.831-1.86 1.858-1.86h17.965c.45 0 .836-.32.915-.765a20.003 20.003 0 0 0 0-7.124.93.93 0 0 0-.915-.765Zm-88.564 0h17.966c.448 0 .836.32.915.765a20.003 20.003 0 0 1 0 7.124.927.927 0 0 1-.915.765H20.74a1.858 1.858 0 0 0-1.857 1.86v1.395c0 1.028.831 1.86 1.857 1.86h15.21a.93.93 0 0 1 .775 1.444c-3.563 5.483-9.733 9.11-16.753 9.11-11.191 0-20.232-9.214-19.967-20.48C.263 8.581 9.42-.194 20.342.003c6.867.126 12.884 3.72 16.382 9.105.404.624-.033 1.447-.774 1.447H20.741a1.858 1.858 0 0 0-1.857 1.86v1.395c0 1.028.831 1.86 1.857 1.86Zm42.891 14.325H57.13c-1.027 0-1.858-.814-1.858-1.818V1.819c0-1.004-.831-1.818-1.858-1.818h-6.503c-1.026 0-1.857.814-1.857 1.818v36.354c0 1.004.831 1.818 1.857 1.818h8.36l8.361.002c1.027 0 1.858-.814 1.858-1.818v-6.362c0-1.004-.831-1.818-1.858-1.818ZM158.382.001H117.51c-1.431 0-2.323 1.59-1.605 2.858l20.436 36.183a1.832 1.832 0 0 0 3.21 0L159.987 2.86c.717-1.27-.177-2.86-1.605-2.86Zm-15.327 11.9-4.306 7.622a.915.915 0 0 1-1.604 0l-4.306-7.622c-.358-.635.088-1.43.804-1.43h8.611c.715 0 1.161.795.803 1.43h-.002ZM166.937.98a1.889 1.889 0 0 1 3.31 0l20.376 36.07c.74 1.309-.181 2.945-1.654 2.945h-18.037a.96.96 0 0 1-.948-.972v-9.512h2.919c.716 0 1.164-.797.804-1.432l-4.313-7.633a.918.918 0 0 0-1.607 0l-4.314 7.633c-.36.637.088 1.432.803 1.432h2.922v9.512a.96.96 0 0 1-.948.972h-18.037c-1.473 0-2.392-1.639-1.654-2.946L166.937.98Zm47.552 9.026h-6.502c-1.027 0-1.858-.814-1.858-1.818V1.826c0-1.004-.832-1.818-1.858-1.818h-6.503c-1.026 0-1.857.814-1.857 1.818v36.356c0 1.004.831 1.818 1.857 1.818h6.503c1.026 0 1.858-.814 1.858-1.818v-16.36c0-1.004.831-1.818 1.858-1.818h6.502c1.026 0 1.858-.814 1.858-1.818v-6.362c0-1.004-.832-1.818-1.858-1.818Zm45.617 5.664a.93.93 0 0 1 .915.765h-.002a20.002 20.002 0 0 1 0 7.124.928.928 0 0 1-.915.765h-17.966a1.859 1.859 0 0 0-1.858 1.86v1.395c0 1.028.832 1.86 1.858 1.86h15.209a.93.93 0 0 1 .776 1.444c-3.563 5.483-9.735 9.11-16.753 9.11-11.192 0-20.232-9.214-19.968-20.48.258-10.935 9.415-19.707 20.337-19.51 6.865.126 12.884 3.72 16.384 9.105.404.624-.033 1.447-.774 1.447h-15.208a1.858 1.858 0 0 0-1.858 1.86v1.395c0 1.027.831 1.86 1.858 1.86h17.965Z" clip-rule="evenodd"/></svg>